<svg width="36" height="636" viewBox="0 0 36 636" fill="none" xmlns="http://www.w3.org/2000/svg">
<path d="M30.5378 116.549H5.33374V616.226H30.5378V116.549Z" fill="url(#paint0_linear)"/>
<path d="M30.5372 198.083H5.33374V259.173H30.5372V198.083Z" fill="url(#paint1_linear)"/>
<path d="M30.5378 592.192H5.33374V616.333H30.5378V592.192Z" fill="url(#paint2_linear)"/>
<path d="M6.50141 624.532C6.45996 624.438 6.39502 624.2 6.39502 624.141V624.096H8.6835H10.9721L10.989 624.196C11.0231 624.397 11.0227 624.441 10.9862 624.522L10.9516 624.597H8.74333H6.53519L6.50182 624.522L6.50141 624.532Z" fill="#F7F7F7"/>
<path d="M11.618 624.499C11.5791 624.401 11.5116 624.157 11.5116 624.114C11.5116 624.097 12.4929 624.097 13.8702 624.097H16.2288L16.2193 624.148C16.1972 624.268 16.1608 624.4 16.1231 624.495L16.083 624.596H13.8723H11.6615L11.6182 624.486L11.618 624.499Z" fill="#F7F7F7"/>
<path d="M16.6284 624.724C16.6284 624.724 16.6441 624.658 16.6633 624.596C16.6947 624.495 16.7304 624.325 16.7557 624.158L16.7652 624.096H17.9489C19.0636 624.096 19.1331 624.096 19.1401 624.129C19.1441 624.148 19.1523 624.201 19.1578 624.247C19.1632 624.293 19.1907 624.42 19.2185 624.528C19.2463 624.636 19.269 624.728 19.269 624.731C19.269 624.731 18.6749 624.731 17.9488 624.731C17.2227 624.731 16.6286 624.731 16.6286 624.714L16.6284 624.724Z" fill="#F7F7F7"/>
<path d="M19.778 624.499C19.7391 624.401 19.6716 624.157 19.6716 624.114C19.6716 624.097 20.6522 624.097 22.0286 624.097C23.7855 624.097 24.3855 624.097 24.3855 624.119C24.3855 624.167 24.3234 624.396 24.2842 624.494L24.2426 624.599H22.0319H19.8212L19.7779 624.489L19.778 624.499Z" fill="#F7F7F7"/>
<path d="M24.9221 624.546C24.8766 624.452 24.8738 624.418 24.8992 624.261C24.9127 624.183 24.9227 624.113 24.9227 624.107C24.9227 624.107 25.9566 624.09 27.2202 624.09H29.5179L29.5084 624.142C29.4891 624.246 29.44 624.419 29.4043 624.509L29.3677 624.599H27.16H24.9522L24.9222 624.538L24.9221 624.546Z" fill="#F7F7F7"/>
<path d="M5.37756 616.17L30.4461 616.223L30.4596 621.825L29.5175 624.822L6.3386 624.731L5.39718 621.732L5.37756 616.17Z" fill="url(#paint3_linear)"/>
<path d="M11.1537 629.357C10.8941 628.542 10.5516 627.594 10.2099 626.745L10.077 626.415L10.132 626.285C10.228 626.059 10.4485 625.568 10.5816 625.285L10.629 625.186H10.8962C11.0431 625.186 11.338 625.186 11.5514 625.186H11.9394L11.9907 625.294C12.1049 625.535 12.3984 626.189 12.4686 626.358L12.4926 626.416L12.4232 626.585C12.0507 627.493 11.6777 628.522 11.3779 629.47L11.3275 629.629H11.2837H11.24L11.1539 629.358L11.1537 629.357Z" fill="#333333"/>
<path d="M24.3938 629.097C24.1343 628.282 23.7917 627.334 23.45 626.485L23.3171 626.155L23.3721 626.025C23.4681 625.799 23.6886 625.308 23.8217 625.025L23.8691 624.926H24.1363C24.2832 624.926 24.5781 624.926 24.7915 624.926H25.1795L25.2308 625.034C25.345 625.275 25.6386 625.929 25.7087 626.098L25.7327 626.156L25.6633 626.326C25.2908 627.233 24.9179 628.262 24.618 629.21L24.5676 629.369H24.5239H24.4801L24.394 629.099L24.3938 629.097Z" fill="#333333"/>
<path d="M16.4572 628.172C16.5647 627.904 16.7657 627.429 16.9036 627.115L17.1545 626.546L16.859 625.882L16.5635 625.219H16.0557C15.6226 625.219 15.548 625.2 15.548 625.149C15.548 625.092 15.5062 625.082 15.3286 625.092C15.121 625.111 15.1054 625.115 15.037 625.266L14.9646 625.425L15.3448 626.351C15.5539 626.86 15.8354 627.586 15.9703 627.964C16.1053 628.343 16.226 628.654 16.2387 628.654C16.2508 628.655 16.3496 628.437 16.4572 628.17L16.4572 628.172Z" fill="#333333"/>
<path d="M19.5196 628.138C19.4121 627.87 19.2111 627.395 19.0732 627.081L18.8223 626.512L19.1178 625.849L19.4133 625.185H19.9211C20.3543 625.185 20.4289 625.166 20.4289 625.115C20.4289 625.059 20.4707 625.048 20.6482 625.059C20.8558 625.078 20.8715 625.081 20.9399 625.232L21.0123 625.391L20.6321 626.317C20.4229 626.826 20.1415 627.552 20.0065 627.931C19.8715 628.309 19.7508 628.62 19.7382 628.621C19.726 628.622 19.6272 628.403 19.5196 628.136V628.138Z" fill="#333333"/>
<path d="M14.7802 635.432C14.7802 635.41 14.8918 634.779 14.9076 634.711C15.1417 630.862 15.3844 631.661 16.3438 629.325C16.3438 629.207 16.9972 627.532 17.3598 626.722L17.5448 626.309V625.772V625.236H17.9981H18.4513V625.78V626.323L18.6456 626.757C18.8488 627.212 19.4099 628.61 19.54 628.986L19.6158 629.205C20.8067 633.314 19.9109 629.707 21.1364 635.012C21.1676 635.191 21.1932 635.363 21.1932 635.394C21.1932 635.45 21.1878 635.451 17.9865 635.451C16.2229 635.451 14.7799 635.451 14.7799 635.432L14.7802 635.432Z" fill="#333333"/>
<path d="M5.36157 198.161H30.5372" stroke="black" stroke-width="0.4"/>
<path d="M22.7169 624.939H21.3427" stroke="black" stroke-width="0.4"/>
<path d="M7.99011 634.037H14.6213" stroke="black" stroke-width="0.4"/>
<path d="M10.6185 624.939H11.9928" stroke="black" stroke-width="0.4"/>
<path d="M12.5876 626.354C12.3996 625.876 12.2014 625.404 11.9932 624.939" stroke="black" stroke-width="0.4"/>
<path d="M10.6186 624.939C10.4102 625.404 10.212 625.876 10.0239 626.354" stroke="black" stroke-width="0.4"/>
<path d="M15.1851 624.939H16.2167" stroke="black" stroke-width="0.4"/>
<path d="M17.2213 626.528C17.031 626.036 16.8299 625.55 16.6182 625.072" stroke="black" stroke-width="0.4"/>
<path d="M15.1849 624.939C15.0774 625.179 14.9727 625.42 14.8706 625.664" stroke="black" stroke-width="0.4"/>
<path d="M27.9088 634.037H21.2775" stroke="black" stroke-width="0.4"/>
<path d="M25.2803 624.939H23.906" stroke="black" stroke-width="0.4"/>
<path d="M23.9059 624.939C23.6977 625.404 23.4995 625.876 23.3115 626.354" stroke="black" stroke-width="0.4"/>
<path d="M25.8749 626.354C25.6869 625.876 25.4886 625.404 25.2803 624.939" stroke="black" stroke-width="0.4"/>
<path d="M20.7139 624.939H19.6823" stroke="black" stroke-width="0.4"/>
<path d="M16.2166 624.939C16.4204 624.605 16.5238 624.19 16.5083 623.768" stroke="black" stroke-width="0.4"/>
<path d="M11.522 624.939H16.2166" stroke="black" stroke-width="0.4"/>
<path d="M19.3907 623.768C19.3752 624.19 19.4785 624.605 19.6824 624.939" stroke="black" stroke-width="0.4"/>
<path d="M24.3767 624.939C24.5807 624.605 24.6842 624.19 24.6686 623.768" stroke="black" stroke-width="0.4"/>
<path d="M16.6182 625.072H19.2805" stroke="black" stroke-width="0.4"/>
<path d="M15.5286 624.939C15.5517 624.985 15.5764 625.03 15.6027 625.073" stroke="black" stroke-width="0.4"/>
<path d="M20.2966 625.073C20.323 625.03 20.3476 624.985 20.3707 624.938" stroke="black" stroke-width="0.4"/>
<path d="M15.6021 625.072H20.2967" stroke="black" stroke-width="0.4"/>
<path d="M19.3479 625.072C19.1362 625.55 18.9351 626.036 18.7449 626.528" stroke="black" stroke-width="0.4"/>
<path d="M19.3479 625.072C19.1362 625.55 18.9351 626.036 18.7449 626.528" stroke="black" stroke-width="0.4"/>
<path d="M21.0621 625.584C20.9707 625.367 20.8771 625.153 20.7815 624.939" stroke="black" stroke-width="0.4"/>
<path d="M30.5371 116.666V530.782" stroke="black" stroke-width="0.400938"/>
<path d="M14.9066 634.037C14.8177 634.508 14.738 634.982 14.6675 635.458H21.2989C21.2284 634.982 21.1487 634.508 21.0597 634.037" stroke="black" stroke-width="0.4"/>
<path d="M16.1497 629.285C16.4887 628.284 16.8713 627.308 17.2958 626.361V625.072" stroke="black" stroke-width="0.4"/>
<path d="M18.6702 625.072V626.361C19.0796 627.274 19.4502 628.215 19.7802 629.179" stroke="black" stroke-width="0.4"/>
<path d="M11.3059 630.316C10.8238 628.448 10.1952 626.647 9.42955 624.939H8.05523C6.78791 627.766 5.89972 630.841 5.42676 634.037H12.0581" fill="#333333"/>
<path d="M11.3059 630.316C10.8238 628.448 10.1952 626.647 9.42955 624.939H8.05523C6.78791 627.766 5.89972 630.841 5.42676 634.037H12.0581" stroke="black" stroke-width="0.4"/>
<path d="M24.5931 624.433C24.643 624.615 24.7161 624.786 24.8094 624.939H29.5038C29.7076 624.605 29.8111 624.19 29.7956 623.768" stroke="black" stroke-width="0.4"/>
<path d="M23.8408 634.037H30.4721C29.9991 630.841 29.111 627.766 27.8437 624.939H26.4694C25.7037 626.647 25.0751 628.448 24.593 630.316" fill="#333333"/>
<path d="M23.8408 634.037H30.4721C29.9991 630.841 29.111 627.766 27.8437 624.939H26.4694C25.7037 626.647 25.0751 628.448 24.593 630.316" stroke="black" stroke-width="0.4"/>
<path d="M13.1819 624.939C11.9146 627.766 11.0264 630.841 10.5535 634.037H17.1848C16.7119 630.841 15.8236 627.766 14.5563 624.939H13.1819Z" fill="#333333" stroke="black" stroke-width="0.4"/>
<path d="M5.36157 530.782V116.666" stroke="black" stroke-width="0.400938"/>
<path d="M30.5372 606.967V621.186C30.504 622.107 30.2759 622.998 29.877 623.768H17.9494H6.02191C5.62294 622.998 5.39483 622.107 5.36157 621.186V606.967" stroke="black" stroke-width="0.4"/>
<path d="M22.7169 624.939C23.9843 627.766 24.8724 630.841 25.3454 634.037H18.7141C19.1871 630.841 20.0753 627.766 21.3426 624.939" fill="#333333"/>
<path d="M22.7169 624.939C23.9843 627.766 24.8724 630.841 25.3454 634.037H18.7141C19.1871 630.841 20.0753 627.766 21.3426 624.939" stroke="black" stroke-width="0.4"/>
<path d="M19.6823 624.939H24.3767" stroke="black" stroke-width="0.4"/>
<path d="M6.10333 623.768C6.08783 624.19 6.19128 624.605 6.39513 624.939H11.0897C11.183 624.786 11.256 624.615 11.3059 624.433" stroke="black" stroke-width="0.4"/>
<path d="M11.2303 623.768C11.2148 624.19 11.3182 624.605 11.522 624.939" stroke="black" stroke-width="0.4"/>
<path d="M5.36157 259.239H30.5372" stroke="black" stroke-width="0.4"/>
<path d="M19.8517 407.419H14.6287L14.4352 407.602V413.491H15.881V411.283L16.0191 411.126H19.8519C20.8197 411.126 21.2734 410.796 21.2734 409.949V408.597C21.2732 407.749 20.8197 407.419 19.8517 407.419V407.419ZM19.8517 409.596C19.8517 409.995 19.6435 410.078 19.1898 410.078H16.0349L15.8809 409.888V408.626L16.0189 408.466H19.1898C19.6435 408.466 19.8517 408.548 19.8517 408.949V409.596V409.596Z" fill="#005288"/>
<path d="M16.8269 420.812L18.0711 423.122L18.0022 423.346H15.2507L14.5483 424.441H18.644L18.9279 424.66L19.5637 425.772H21.2184L17.5915 419.623" fill="#005288"/>
<path d="M16.0543 451.494V449.859L16.2031 449.696H18.9711V448.656H14.5841V452.689H21.0554V451.654H16.2097" fill="#005288"/>
<path d="M21.1235 446.616H14.5841V447.761H21.1235V446.616Z" fill="#005288"/>
<path d="M16.0328 433.954H21.3013C21.2201 433.105 20.8044 432.869 19.7498 432.869H15.9767C14.7868 432.869 14.4072 433.164 14.4072 434.305V437.507C14.4072 438.649 14.7868 438.944 15.9767 438.944H19.7498C20.8198 438.944 21.2296 438.689 21.2575 437.808H16.0328L15.8778 437.624V434.078" fill="#005288"/>
<path d="M19.7952 395.793H15.9625L15.8496 395.635V394.596L15.9619 394.486H21.1288L21.1994 394.267C21.0234 393.694 20.5676 393.426 19.7214 393.426H16.1322C14.943 393.426 14.5629 393.72 14.5629 394.861V395.533C14.5629 396.676 14.943 396.969 16.1322 396.969H19.9564L20.0765 397.103V398.189L19.9786 398.359H15.6043V398.354H14.4585C14.4585 398.354 14.3274 398.437 14.3324 398.476C14.4302 399.274 14.8593 399.501 15.8866 399.501H19.7954C20.9844 399.501 21.3759 399.206 21.3759 398.064V397.227C21.3759 396.087 20.9844 395.793 19.7954 395.793" fill="#005288"/>
<path d="M16.1055 460.697H13.9541L13.8373 460.978L16.2265 463.186C16.6791 462.854 17.1716 462.517 17.7072 462.185" fill="#005288"/>
<path d="M18.0332 464.855L20.1332 466.796H22.3109L22.4011 466.539L19.2653 463.63C18.8489 464.017 18.4374 464.426 18.0333 464.855" fill="#005288"/>
<path d="M15.7855 466.791H13.839L13.6746 466.465C14.998 464.845 21.0411 458.758 28.907 457.984C28.907 457.984 22.0263 458.952 15.7855 466.791" fill="#A7A9AC"/>
<path d="M24.1339 297.561H11.714V306.409H24.1339V297.561Z" fill="#B22234"/>
<path d="M11.7139 298.582H24.1337H11.7139ZM24.1337 299.943H11.7139H24.1337ZM11.7139 301.305H24.1337H11.7139ZM24.1337 302.666H11.7139H24.1337ZM11.7139 304.027H24.1337H11.7139ZM24.1337 305.388H11.7139Z" fill="black"/>
<path d="M24.1337 305.388H11.7139M11.7139 298.582H24.1337H11.7139ZM24.1337 299.943H11.7139H24.1337ZM11.7139 301.305H24.1337H11.7139ZM24.1337 302.666H11.7139H24.1337ZM11.7139 304.027H24.1337H11.7139Z" stroke="white" stroke-width="0.384868"/>
<path d="M16.682 297.561H11.714V302.325H16.682V297.561Z" fill="#3C3B6E"/>
<path d="M12.1295 297.767L12.2477 298.259L11.9382 297.955H12.3208L12.0113 298.259L12.1295 297.767Z" fill="white"/>
<path fill-rule="evenodd" clip-rule="evenodd" d="M14.3437 284.32C14.759 284.038 15.1768 283.763 15.6147 283.545C10.6584 280.24 10.3807 277.756 9.36279 275.142C10.1466 278.169 10.8014 281.192 14.3437 284.32V284.32Z" fill="#A80126"/>
<path fill-rule="evenodd" clip-rule="evenodd" d="M11.7607 279.359C13.649 281.36 15.2879 282.786 16.4972 283.22C17.6925 282.412 21.6474 281.972 21.5615 283.113C20.6958 282.572 20.1815 282.828 19.6912 283.028C19.9381 283.024 20.5894 282.932 20.7854 283.02C20.7057 283.142 20.6191 283.194 20.5298 283.263C20.8498 283.351 21.152 283.467 21.4036 283.658C21.5667 283.638 21.6733 283.643 21.7231 283.708C21.5567 283.763 21.3562 284.034 21.2579 284.217C22.357 284.257 23.5274 284.243 23.6504 285.712C23.9969 284.411 23.3774 283.734 22.1688 283.439C22.0104 282.993 21.7551 282.613 21.5073 282.183C18.2044 281.949 14.9053 281.665 11.7607 279.359V279.359Z" fill="#A80126"/>
<path fill-rule="evenodd" clip-rule="evenodd" d="M9.16907 289.483V286.948H10.5076C10.4546 287.036 10.4098 287.127 10.2966 287.184H9.45848V287.852H10.2061C10.1638 287.932 10.1167 288.007 10.0373 288.04H9.45848V288.944C9.39768 289.149 9.31687 289.34 9.16907 289.483Z" fill="black"/>
<path fill-rule="evenodd" clip-rule="evenodd" d="M12.7812 287.211V289.065H13.1611V287.319C12.6465 286.726 12.1319 286.726 11.6173 287.319V289.065H11.961V288.04H12.2324C12.2956 287.999 12.3395 287.949 12.365 287.892H11.9671V287.218C12.2724 286.952 12.5159 286.952 12.7812 287.211V287.211Z" fill="black"/>
<path fill-rule="evenodd" clip-rule="evenodd" d="M16.7479 289.126H15.2051V286.989H15.591V288.95H16.9476C16.891 289.016 16.8619 289.103 16.7479 289.126Z" fill="black"/>
<path fill-rule="evenodd" clip-rule="evenodd" d="M19.0529 286.949V287.369C18.4335 288.434 19.4894 289.712 20.6774 288.775L20.767 288.751C20.0304 289.805 17.332 288.95 19.0529 286.949L19.0529 286.949Z" fill="black"/>
<path fill-rule="evenodd" clip-rule="evenodd" d="M18.238 287.004V287.778C18.8304 286.424 19.6517 285.751 22.1667 286.649C19.7543 285.448 18.859 286.077 18.238 287.004Z" fill="black"/>
<path fill-rule="evenodd" clip-rule="evenodd" d="M22.9237 286.782C22.4198 286.792 21.9147 287.218 21.9175 288.026C21.9232 289.642 23.9292 289.724 23.9298 288.026C23.9301 287.177 23.4275 286.771 22.9237 286.782V286.782ZM22.9192 286.95C23.218 286.945 23.5182 287.301 23.5206 288.026C23.5263 289.476 22.3364 289.443 22.3287 288.026C22.3242 287.317 22.6203 286.954 22.9192 286.95Z" fill="black"/>
<path fill-rule="evenodd" clip-rule="evenodd" d="M25.8068 287.216V289.142H25.5071V287.121L25.8081 286.936L25.8058 287.023C26.2697 287.01 26.5938 287.279 26.6783 287.427V289.161H26.3861V287.458C26.2787 287.232 26.1585 287.175 25.8062 287.17L25.8068 287.216Z" fill="black"/>
<path fill-rule="evenodd" clip-rule="evenodd" d="M17.9481 290.63C14.8459 290.648 15.6491 293.801 17.3643 293.738C18.1638 293.709 18.3151 293.603 18.8504 292.878C18.5158 295.003 17.3769 295.004 16.0064 295.173C15.8342 295.316 15.7992 295.347 15.6813 295.577C18.0084 295.517 19.9603 294.993 19.9031 292.704C19.8632 291.103 19.0176 290.624 17.9481 290.63V290.63ZM17.9017 291.011C18.0361 291.011 18.1693 291.037 18.2935 291.089C18.4178 291.14 18.5307 291.215 18.6258 291.31C18.7209 291.404 18.7963 291.517 18.8477 291.641C18.8992 291.765 18.9257 291.897 18.9256 292.031C18.9249 292.301 18.8168 292.56 18.6248 292.751C18.4328 292.942 18.1727 293.049 17.9017 293.049C17.631 293.048 17.3715 292.941 17.18 292.75C16.9885 292.56 16.8806 292.301 16.8799 292.031C16.8799 291.761 16.9875 291.502 17.179 291.31C17.3706 291.119 17.6305 291.011 17.9017 291.011Z" fill="black"/>
<path fill-rule="evenodd" clip-rule="evenodd" d="M30.5237 259.835L32.2542 263.617V300.068L31.5381 305.967V607.835L30.2276 614.145V556.819L29.5525 554.038V549.118L30.1885 546.11V518.851L29.444 515.33V508.263L30.0588 504.627V316.285L29.4681 312.114V259.922L30.5237 259.835Z" fill="#101010" stroke="black" stroke-width="0.4" stroke-linecap="round" stroke-linejoin="round"/>
<path d="M5.36157 616.259H30.5372" stroke="black" stroke-width="0.4"/>
<path d="M5.36157 592.302H30.5372" stroke="black" stroke-width="0.4"/>
<path d="M5.23322 616.933H4.58984V617.708H5.23322V616.933Z" fill="#101010"/>
<path d="M8.53497 523.469L8.45586 523.476L8.37419 523.493L8.29236 523.52L8.2107 523.557L8.12895 523.607L8.04456 523.664L7.96018 523.734L7.87579 523.814L7.78877 523.904L7.70167 524.008L7.61201 524.122L7.52235 524.252L7.42997 524.396L7.33512 524.553L7.24274 524.723L7.14509 524.91L7.04752 525.114L6.94732 525.332L6.84711 525.566L6.74427 525.813L6.64142 526.074L6.5385 526.344L6.43565 526.622L6.33545 526.906L6.23524 527.197L6.13767 527.487L6.04274 527.785L5.9478 528.079L5.85815 528.373L5.77376 528.664L5.6921 528.951L5.6157 529.239L5.54179 529.523L5.47322 529.807L5.41257 530.091L5.35456 530.375L5.30173 530.662L5.25427 530.95L5.2199 531.201L5.20145 531.261L5.16189 531.391L5.12505 531.521L5.05385 531.779L4.98801 532.026L4.92464 532.273L4.86935 532.514L4.81397 532.751L4.76115 532.985L4.71104 533.219L4.66358 533.45L4.61619 533.684L4.57136 533.921L4.52917 534.162L4.48706 534.409L4.44495 534.663L4.42649 534.793L4.4054 534.924L4.3843 535.061L4.36584 535.198L4.34474 535.342L4.32629 535.485L4.30519 535.632L4.28673 535.783L4.26819 535.94L4.24717 536.097L4.23902 536.181L4.23638 536.201L4.23366 536.211V536.214V536.218V536.221V536.228L4.23094 536.278L4.21248 537.047L4.13073 540.135L3.80374 552.478L3.15504 577.164L2.50369 601.849L2.17942 614.192L2.17398 614.383L2.17126 614.48V614.497L2.17398 614.518L2.17942 614.557L2.19286 614.638L2.21667 614.795L2.24568 614.956L2.27469 615.117L2.30633 615.278L2.34317 615.438L2.38 615.599L2.42483 615.76L2.46966 615.918L2.52248 616.075L2.5805 616.232L2.64115 616.39L2.70971 616.547L2.78355 616.701L2.86529 616.852L2.95232 617.002L3.04725 617.153L3.09735 617.227L3.15018 617.3L3.20547 617.37L3.26085 617.444L3.31894 617.514L3.37951 617.588L3.44288 617.658L3.50873 617.728L3.57729 617.795L3.64593 617.865L3.71705 617.932L3.79353 617.998L3.86992 618.065L3.94903 618.132L4.03069 618.195L4.1178 618.262L4.2049 618.325L4.24973 618.353H4.27074H4.29456H4.31557H4.32637H4.33716L4.34796 618.336L4.36147 618.318L4.37227 618.298L4.38306 618.277L4.39394 618.253L4.40202 618.223H4.40474L4.40737 618.205L4.41009 618.178L4.41553 618.125L4.43399 617.908L4.4761 617.467L4.51566 617.022L4.55521 616.574L4.59477 616.123L4.6344 615.665L4.67396 615.207L4.71351 614.746L4.75307 614.278L4.79263 613.81L4.83218 613.339L4.91129 612.393L4.9904 611.437L5.06951 610.478L5.14862 609.516L5.31212 607.587L5.39123 606.628L5.47561 605.672L5.55736 604.726L5.59947 604.255L5.64158 603.784L5.68369 603.319L5.72852 602.855L5.77063 602.397L5.81274 601.939L5.85757 601.488L5.9024 601.04L5.94723 600.595L5.99206 600.154L6.03689 599.716L6.08172 599.288L6.12926 598.861L6.17409 598.443L6.22164 598.028L6.26903 597.617L6.31905 597.216L6.3666 596.818L6.41414 596.431L6.46425 596.046L6.51435 595.672L6.56437 595.304L6.62774 595.06L6.73314 594.796L6.8809 594.519L7.06277 594.245L7.27909 593.984L7.52433 593.75L7.79059 593.556L8.08074 593.413L8.384 593.336H8.70036L9.02479 593.426L9.3517 593.616L9.89756 595.425L10.4698 597.42L11.0394 599.415L11.6116 601.411L12.1813 603.406L12.7535 605.401L13.323 607.396L13.8954 609.392L14.4649 611.391L15.0371 613.386L15.6068 615.381L16.179 617.376L16.3241 617.861L16.3503 617.921L16.3794 617.977L16.411 618.027L16.4453 618.077L16.4821 618.119L16.5191 618.159L16.556 618.196L16.5981 618.229L16.6377 618.256L16.6798 618.284L16.7219 618.308L16.7667 618.325L16.8116 618.342L16.8539 618.359H16.8987H16.9408H16.9856H17.0252H17.0673H17.1041H17.1411H17.178H17.2096H17.2623L17.3335 618.316L17.4047 618.232L17.4733 618.106L17.5391 617.945L17.6025 617.751L17.6605 617.534L17.7159 617.293L17.766 617.036L17.8108 616.765L17.8504 616.488L17.882 616.207L17.6235 613.089L17.017 606.558L16.4105 600.031L15.804 593.5L15.1975 586.972L14.5936 580.442L13.9871 573.914L13.3806 567.384L12.7741 560.856L12.1702 554.326L11.5637 547.798L10.9571 541.267L10.5616 536.846L10.5562 536.418L10.5535 535.987L10.5508 535.559L10.5481 535.131L10.5454 534.7L10.5427 534.272L10.54 533.841L10.5373 533.413L10.5346 532.985L10.5319 532.554L10.5292 532.126L10.5157 531.588L10.4681 530.753L10.418 529.997L10.368 529.312L10.3179 528.697L10.2625 528.143L10.2097 527.648L10.1544 527.2L10.099 526.802L10.041 526.445L9.98294 526.124L9.92228 525.83L9.86172 525.562L9.80106 525.315L9.73778 525.088L9.67712 524.88L9.6112 524.69L9.54791 524.516L9.48198 524.359L9.41342 524.215L9.34758 524.088L9.27638 523.975L9.20782 523.874L9.13662 523.784L9.0655 523.707L8.99166 523.641L8.91783 523.587L8.84391 523.54L8.76752 523.507L8.69113 523.484L8.61465 523.47L8.53497 523.469Z" fill="url(#paint4_linear)"/>
<path fill-rule="evenodd" clip-rule="evenodd" d="M4.38453 618.343L5.31276 607.594L5.54482 604.225L6.36758 596.311L6.49407 595.214L6.93718 594.305L7.50678 593.664L8.07638 593.343L8.66707 593.262L9.0679 593.343L9.42654 593.69L16.3039 617.861L16.7048 618.316L17.1689 618.422L17.1478 618.022L6.76841 582.648L6.2621 581.926L5.71359 581.471L5.14399 581.658L4.91193 582.541L2.73901 616.605L3.26642 617.46L3.79383 618.075L4.38453 618.343Z" fill="url(#paint5_linear)"/>
<path d="M10.5334 531.775L8.86719 529.538" stroke="black" stroke-width="0.4"/>
<path d="M8.86707 529.538L5.58569 529.552" stroke="black" stroke-width="0.4"/>
<path d="M5.46521 581.499L5.70081 540.225" stroke="black" stroke-width="0.4"/>
<path d="M5.70068 540.225L8.61774 535.22" stroke="black" stroke-width="0.4"/>
<path d="M5.70081 540.225L4.30713 535.649" stroke="black" stroke-width="0.4"/>
<path d="M8.61792 535.219L8.86713 529.538" stroke="black" stroke-width="0.4" stroke-linecap="round"/>
<path d="M4.53296 616.801H5.36151" stroke="black" stroke-width="0.4"/>
<path d="M4.4314 617.924H5.36127" stroke="black" stroke-width="0.4"/>
<path d="M2.75269 616.636L2.91256 614.066L3.07243 611.496L3.2323 608.926L3.39216 606.357L3.55203 603.787L3.7119 601.217L3.87177 598.647L4.03164 596.077L4.19151 593.507L4.35138 590.937L4.51125 588.367L4.67112 585.797L4.83099 583.227L4.89824 582.412L4.94274 582.208L4.99573 582.033L5.05621 581.886L5.12337 581.764L5.1963 581.667L5.27426 581.593L5.35601 581.54L5.44097 581.507L5.52808 581.49H5.6165L5.70517 581.507L5.79351 581.538L5.88045 581.581L5.96549 581.636L6.04856 581.701L6.12956 581.774L6.20843 581.855L6.28507 581.944L6.35948 582.038L6.43142 582.137L6.50081 582.24L6.56764 582.346L6.63192 582.454L6.69339 582.563L6.75215 582.673L6.99097 583.426L7.77787 586.111L8.56478 588.796L9.35177 591.482L10.1387 594.168L10.9256 596.853L11.7126 599.538L12.4995 602.224L13.2864 604.909L14.0734 607.595L14.8603 610.28L15.6473 612.966L16.4342 615.651L17.2211 618.336" stroke="black" stroke-width="0.4"/>
<path d="M8.53497 523.469L8.45586 523.476L8.37419 523.493L8.29236 523.52L8.2107 523.557L8.12895 523.607L8.04456 523.664L7.96018 523.734L7.87579 523.814L7.78877 523.904L7.70167 524.008L7.61201 524.122L7.52235 524.252L7.42997 524.396L7.33512 524.553L7.24274 524.723L7.14509 524.91L7.04752 525.114L6.94732 525.332L6.84711 525.566L6.74427 525.813L6.64142 526.074L6.5385 526.344L6.43565 526.622L6.33545 526.906L6.23524 527.197L6.13767 527.487L6.04274 527.785L5.9478 528.079L5.85815 528.373L5.77376 528.664L5.6921 528.951L5.6157 529.239L5.54179 529.523L5.47322 529.807L5.41257 530.091L5.35456 530.375L5.30173 530.662L5.25427 530.95L5.2199 531.201L5.20145 531.261L5.16189 531.391L5.12505 531.521L5.05385 531.779L4.98801 532.026L4.92464 532.273L4.86935 532.514L4.81397 532.751L4.76115 532.985L4.71104 533.219L4.66358 533.45L4.61619 533.684L4.57136 533.921L4.52917 534.162L4.48706 534.409L4.44495 534.663L4.42649 534.793L4.4054 534.924L4.3843 535.061L4.36584 535.198L4.34474 535.342L4.32629 535.485L4.30519 535.632L4.28673 535.783L4.26819 535.94L4.24717 536.097L4.23902 536.181L4.23638 536.201L4.23366 536.211V536.214V536.218V536.221V536.228L4.23094 536.278L4.21248 537.047L4.13073 540.135L3.80374 552.478L3.15504 577.164L2.50369 601.849L2.17942 614.192L2.17398 614.383L2.17126 614.48V614.497L2.17398 614.518L2.17942 614.557L2.19286 614.638L2.21667 614.795L2.24568 614.956L2.27469 615.117L2.30633 615.278L2.34317 615.438L2.38 615.599L2.42483 615.76L2.46966 615.918L2.52248 616.075L2.5805 616.232L2.64115 616.39L2.70971 616.547L2.78355 616.701L2.86529 616.852L2.95232 617.002L3.04725 617.153L3.09735 617.227L3.15018 617.3L3.20547 617.37L3.26085 617.444L3.31894 617.514L3.37951 617.588L3.44288 617.658L3.50873 617.728L3.57729 617.795L3.64593 617.865L3.71705 617.932L3.79353 617.998L3.86992 618.065L3.94903 618.132L4.03069 618.195L4.1178 618.262L4.2049 618.325L4.24973 618.353H4.27074H4.29456H4.31557H4.32637H4.33716L4.34796 618.336L4.36147 618.318L4.37227 618.298L4.38306 618.277L4.39394 618.253L4.40202 618.223H4.40474L4.40737 618.205L4.41009 618.178L4.41553 618.125L4.43399 617.908L4.4761 617.467L4.51566 617.022L4.55521 616.574L4.59477 616.123L4.6344 615.665L4.67396 615.207L4.71351 614.746L4.75307 614.278L4.79263 613.81L4.83218 613.339L4.91129 612.393L4.9904 611.437L5.06951 610.478L5.14862 609.516L5.31212 607.587L5.39123 606.628L5.47561 605.672L5.55736 604.726L5.59947 604.255L5.64158 603.784L5.68369 603.319L5.72852 602.855L5.77063 602.397L5.81274 601.939L5.85757 601.488L5.9024 601.04L5.94723 600.595L5.99206 600.154L6.03689 599.716L6.08172 599.288L6.12926 598.861L6.17409 598.443L6.22164 598.028L6.26903 597.617L6.31905 597.216L6.3666 596.818L6.41414 596.431L6.46425 596.046L6.51435 595.672L6.56437 595.304L6.62774 595.06L6.73314 594.796L6.8809 594.519L7.06277 594.245L7.27909 593.984L7.52433 593.75L7.79059 593.556L8.08074 593.413L8.384 593.336H8.70036L9.02479 593.426L9.3517 593.616L9.89756 595.425L10.4698 597.42L11.0394 599.415L11.6116 601.411L12.1813 603.406L12.7535 605.401L13.323 607.396L13.8954 609.392L14.4649 611.391L15.0371 613.386L15.6068 615.381L16.179 617.376L16.3241 617.861L16.3503 617.921L16.3794 617.977L16.411 618.027L16.4453 618.077L16.4821 618.119L16.5191 618.159L16.556 618.196L16.5981 618.229L16.6377 618.256L16.6798 618.284L16.7219 618.308L16.7667 618.325L16.8116 618.342L16.8539 618.359H16.8987H16.9408H16.9856H17.0252H17.0673H17.1041H17.1411H17.178H17.2096H17.2623L17.3335 618.316L17.4047 618.232L17.4733 618.106L17.5391 617.945L17.6025 617.751L17.6605 617.534L17.7159 617.293L17.766 617.036L17.8108 616.765L17.8504 616.488L17.882 616.207L17.6235 613.089L17.017 606.558L16.4105 600.031L15.804 593.5L15.1975 586.972L14.5936 580.442L13.9871 573.914L13.3806 567.384L12.7741 560.856L12.1702 554.326L11.5637 547.798L10.9571 541.267L10.5616 536.846L10.5562 536.418L10.5535 535.987L10.5508 535.559L10.5481 535.131L10.5454 534.7L10.5427 534.272L10.54 533.841L10.5373 533.413L10.5346 532.985L10.5319 532.554L10.5292 532.126L10.5157 531.588L10.4681 530.753L10.418 529.997L10.368 529.312L10.3179 528.697L10.2625 528.143L10.2097 527.648L10.1544 527.2L10.099 526.802L10.041 526.445L9.98294 526.124L9.92228 525.83L9.86172 525.562L9.80106 525.315L9.73778 525.088L9.67712 524.88L9.6112 524.69L9.54791 524.516L9.48198 524.359L9.41342 524.215L9.34758 524.088L9.27638 523.975L9.20782 523.874L9.13662 523.784L9.0655 523.707L8.99166 523.641L8.91783 523.587L8.84391 523.54L8.76752 523.507L8.69113 523.484L8.61465 523.47L8.53497 523.469Z" stroke="black" stroke-width="0.4"/>
<path d="M30.6664 616.933H31.3098V617.708H30.6664V616.933Z" fill="#101010"/>
<path d="M27.3643 523.469L27.4434 523.476L27.5251 523.493L27.6069 523.52L27.6886 523.557L27.7703 523.607L27.8547 523.664L27.9391 523.734L28.0235 523.814L28.1105 523.904L28.1976 524.008L28.2873 524.122L28.3769 524.252L28.4693 524.396L28.5642 524.553L28.6565 524.723L28.7542 524.91L28.8518 525.114L28.952 525.332L29.0522 525.566L29.155 525.813L29.2579 526.074L29.3608 526.344L29.4636 526.622L29.5638 526.906L29.6641 527.197L29.7616 527.487L29.8566 527.785L29.9515 528.079L30.0411 528.373L30.1255 528.664L30.2072 528.951L30.2836 529.239L30.3575 529.523L30.4261 529.807L30.4867 530.091L30.5447 530.375L30.5976 530.662L30.645 530.95L30.6794 531.201L30.6978 531.261L30.7374 531.391L30.7742 531.521L30.8454 531.779L30.9113 532.026L30.9747 532.273L31.0299 532.514L31.0853 532.751L31.1381 532.985L31.1882 533.219L31.2357 533.45L31.2831 533.684L31.3279 533.921L31.3701 534.162L31.4122 534.409L31.4543 534.663L31.4728 534.793L31.4939 534.924L31.515 535.061L31.5335 535.198L31.5545 535.342L31.573 535.485L31.5941 535.632L31.6126 535.783L31.6311 535.94L31.6521 536.097L31.6603 536.181L31.6629 536.201L31.6656 536.211V536.214V536.218V536.221V536.228L31.6684 536.278L31.6868 537.047L31.7686 540.135L32.0955 552.478L32.7443 577.164L33.3956 601.849L33.7199 614.192L33.7253 614.383L33.728 614.48V614.497L33.7253 614.518L33.7199 614.557L33.7064 614.638L33.6826 614.795L33.6536 614.956L33.6246 615.117L33.593 615.278L33.5561 615.438L33.5193 615.599L33.4745 615.76L33.4296 615.918L33.3768 616.075L33.3188 616.232L33.2581 616.39L33.1896 616.547L33.1157 616.701L33.034 616.852L32.947 617.002L32.852 617.153L32.8019 617.227L32.7491 617.3L32.6938 617.37L32.6384 617.444L32.5803 617.514L32.5198 617.588L32.4564 617.658L32.3906 617.728L32.322 617.795L32.2534 617.865L32.1822 617.932L32.1058 617.998L32.0294 618.065L31.9503 618.132L31.8686 618.195L31.7815 618.262L31.6944 618.325L31.6496 618.353H31.6285H31.6047H31.5837H31.5729H31.5621L31.5513 618.336L31.5378 618.318L31.527 618.298L31.5162 618.277L31.5054 618.253L31.4973 618.223H31.4946L31.4919 618.205L31.4892 618.178L31.4838 618.125L31.4653 617.908L31.4232 617.467L31.3836 617.022L31.3441 616.574L31.3045 616.123L31.2649 615.665L31.2253 615.207L31.1858 614.746L31.1462 614.278L31.1067 613.81L31.0671 613.339L30.988 612.393L30.9089 611.437L30.8298 610.478L30.7507 609.516L30.5872 607.587L30.5081 606.628L30.4237 605.672L30.3419 604.726L30.2998 604.255L30.2577 603.784L30.2156 603.319L30.1708 602.855L30.1287 602.397L30.0866 601.939L30.0417 601.488L29.9969 601.04L29.9521 600.595L29.9072 600.154L29.8624 599.716L29.8176 599.288L29.77 598.861L29.7252 598.443L29.6777 598.028L29.6303 597.617L29.5802 597.216L29.5327 596.818L29.4851 596.431L29.435 596.046L29.3849 595.672L29.3349 595.304L29.2715 595.06L29.1662 594.796L29.0184 594.519L28.8365 594.245L28.6202 593.984L28.375 593.75L28.1087 593.556L27.8186 593.413L27.5153 593.336H27.1989L26.8745 593.426L26.5476 593.616L26.0017 595.425L25.4295 597.42L24.8599 599.415L24.2877 601.411L23.718 603.406L23.1458 605.401L22.5762 607.396L22.0039 609.392L21.4344 611.391L20.8622 613.386L20.2925 615.381L19.7203 617.376L19.5752 617.861L19.5489 617.921L19.5199 617.977L19.4883 618.027L19.454 618.077L19.4172 618.119L19.3802 618.159L19.3433 618.196L19.3012 618.229L19.2616 618.256L19.2195 618.284L19.1774 618.308L19.1325 618.325L19.0877 618.342L19.0454 618.359H19.0006H18.9585H18.9137H18.8741H18.832H18.7952H18.7582H18.7213H18.6897H18.637L18.5658 618.316L18.4946 618.232L18.426 618.106L18.3601 617.945L18.2968 617.751L18.2388 617.534L18.1834 617.293L18.1333 617.036L18.0885 616.765L18.0489 616.488L18.0173 616.207L18.2758 613.089L18.8823 606.558L19.4888 600.031L20.0953 593.5L20.7018 586.972L21.3057 580.442L21.9122 573.914L22.5187 567.384L23.1252 560.856L23.7291 554.326L24.3356 547.798L24.9421 541.267L25.3377 536.846L25.3431 536.418L25.3458 535.987L25.3485 535.559L25.3512 535.131L25.3538 534.7L25.3566 534.272L25.3593 533.841L25.362 533.413L25.3647 532.985L25.3674 532.554L25.3701 532.126L25.3836 531.588L25.4311 530.753L25.4812 529.997L25.5313 529.312L25.5814 528.697L25.6367 528.143L25.6896 527.648L25.7449 527.2L25.8002 526.802L25.8583 526.445L25.9164 526.124L25.977 525.83L26.0376 525.562L26.0982 525.315L26.1615 525.088L26.2222 524.88L26.2881 524.69L26.3514 524.516L26.4173 524.359L26.4859 524.215L26.5517 524.088L26.6229 523.975L26.6915 523.874L26.7627 523.784L26.8338 523.707L26.9076 523.641L26.9815 523.587L27.0554 523.54L27.1318 523.507L27.2082 523.484L27.2846 523.47L27.3643 523.469Z" fill="url(#paint6_linear)"/>
<path fill-rule="evenodd" clip-rule="evenodd" d="M31.5151 618.343L30.5869 607.594L30.3548 604.225L29.5321 596.311L29.4056 595.214L28.9625 594.305L28.3929 593.664L27.8233 593.343L27.2326 593.262L26.8317 593.343L26.4731 593.69L19.5957 617.861L19.1948 618.316L18.7307 618.422L18.7518 618.022L29.1312 582.648L29.6375 581.926L30.1861 581.471L30.7557 581.658L30.9877 582.541L33.1606 616.605L32.6332 617.46L32.1058 618.075L31.5151 618.343Z" fill="url(#paint7_linear)"/>
<path d="M25.3665 531.775L27.0327 529.538" stroke="black" stroke-width="0.4"/>
<path d="M27.0325 529.538L30.314 529.552" stroke="black" stroke-width="0.4"/>
<path d="M30.4343 581.499L30.1988 540.225" stroke="black" stroke-width="0.4"/>
<path d="M30.1987 540.225L27.2816 535.22" stroke="black" stroke-width="0.4"/>
<path d="M30.1988 540.225L31.5925 535.649" stroke="black" stroke-width="0.4"/>
<path d="M27.2816 535.219L27.0327 529.538" stroke="black" stroke-width="0.4" stroke-linecap="round"/>
<path d="M31.3669 616.801H30.5383" stroke="black" stroke-width="0.4"/>
<path d="M31.4681 617.924H30.5381" stroke="black" stroke-width="0.4"/>
<path d="M33.1469 616.636L32.987 614.066L32.8271 611.496L32.6672 608.926L32.5074 606.357L32.3475 603.787L32.1876 601.217L32.0278 598.647L31.8679 596.077L31.708 593.507L31.5481 590.937L31.3883 588.367L31.2284 585.797L31.0685 583.227L31.0013 582.412L30.9568 582.208L30.9038 582.033L30.8433 581.886L30.7762 581.764L30.7032 581.667L30.6253 581.593L30.5435 581.54L30.4586 581.507L30.3714 581.49H30.283L30.1944 581.507L30.106 581.538L30.0191 581.581L29.934 581.636L29.851 581.701L29.77 581.774L29.6911 581.855L29.6145 581.944L29.54 582.038L29.4681 582.137L29.3987 582.24L29.3319 582.346L29.2676 582.454L29.2061 582.563L29.1474 582.673L28.9086 583.426L28.1216 586.111L27.3347 588.796L26.5477 591.482L25.7608 594.168L24.9739 596.853L24.1869 599.538L23.4 602.224L22.6131 604.909L21.8261 607.595L21.0392 610.28L20.2522 612.966L19.4653 615.651L18.6784 618.336" stroke="black" stroke-width="0.4"/>
<path d="M27.3643 523.469L27.4434 523.476L27.5251 523.493L27.6069 523.52L27.6886 523.557L27.7703 523.607L27.8547 523.664L27.9391 523.734L28.0235 523.814L28.1105 523.904L28.1976 524.008L28.2873 524.122L28.3769 524.252L28.4693 524.396L28.5642 524.553L28.6565 524.723L28.7542 524.91L28.8518 525.114L28.952 525.332L29.0522 525.566L29.155 525.813L29.2579 526.074L29.3608 526.344L29.4636 526.622L29.5638 526.906L29.6641 527.197L29.7616 527.487L29.8566 527.785L29.9515 528.079L30.0411 528.373L30.1255 528.664L30.2072 528.951L30.2836 529.239L30.3575 529.523L30.4261 529.807L30.4867 530.091L30.5447 530.375L30.5976 530.662L30.645 530.95L30.6794 531.201L30.6978 531.261L30.7374 531.391L30.7742 531.521L30.8454 531.779L30.9113 532.026L30.9747 532.273L31.0299 532.514L31.0853 532.751L31.1381 532.985L31.1882 533.219L31.2357 533.45L31.2831 533.684L31.3279 533.921L31.3701 534.162L31.4122 534.409L31.4543 534.663L31.4728 534.793L31.4939 534.924L31.515 535.061L31.5335 535.198L31.5545 535.342L31.573 535.485L31.5941 535.632L31.6126 535.783L31.6311 535.94L31.6521 536.097L31.6603 536.181L31.6629 536.201L31.6656 536.211V536.214V536.218V536.221V536.228L31.6684 536.278L31.6868 537.047L31.7686 540.135L32.0955 552.478L32.7443 577.164L33.3956 601.849L33.7199 614.192L33.7253 614.383L33.728 614.48V614.497L33.7253 614.518L33.7199 614.557L33.7064 614.638L33.6826 614.795L33.6536 614.956L33.6246 615.117L33.593 615.278L33.5561 615.438L33.5193 615.599L33.4745 615.76L33.4296 615.918L33.3768 616.075L33.3188 616.232L33.2581 616.39L33.1896 616.547L33.1157 616.701L33.034 616.852L32.947 617.002L32.852 617.153L32.8019 617.227L32.7491 617.3L32.6938 617.37L32.6384 617.444L32.5803 617.514L32.5198 617.588L32.4564 617.658L32.3906 617.728L32.322 617.795L32.2534 617.865L32.1822 617.932L32.1058 617.998L32.0294 618.065L31.9503 618.132L31.8686 618.195L31.7815 618.262L31.6944 618.325L31.6496 618.353H31.6285H31.6047H31.5837H31.5729H31.5621L31.5513 618.336L31.5378 618.318L31.527 618.298L31.5162 618.277L31.5054 618.253L31.4973 618.223H31.4946L31.4919 618.205L31.4892 618.178L31.4838 618.125L31.4653 617.908L31.4232 617.467L31.3836 617.022L31.3441 616.574L31.3045 616.123L31.2649 615.665L31.2253 615.207L31.1858 614.746L31.1462 614.278L31.1067 613.81L31.0671 613.339L30.988 612.393L30.9089 611.437L30.8298 610.478L30.7507 609.516L30.5872 607.587L30.5081 606.628L30.4237 605.672L30.3419 604.726L30.2998 604.255L30.2577 603.784L30.2156 603.319L30.1708 602.855L30.1287 602.397L30.0866 601.939L30.0417 601.488L29.9969 601.04L29.9521 600.595L29.9072 600.154L29.8624 599.716L29.8176 599.288L29.77 598.861L29.7252 598.443L29.6777 598.028L29.6303 597.617L29.5802 597.216L29.5327 596.818L29.4851 596.431L29.435 596.046L29.3849 595.672L29.3349 595.304L29.2715 595.06L29.1662 594.796L29.0184 594.519L28.8365 594.245L28.6202 593.984L28.375 593.75L28.1087 593.556L27.8186 593.413L27.5153 593.336H27.1989L26.8745 593.426L26.5476 593.616L26.0017 595.425L25.4295 597.42L24.8599 599.415L24.2877 601.411L23.718 603.406L23.1458 605.401L22.5762 607.396L22.0039 609.392L21.4344 611.391L20.8622 613.386L20.2925 615.381L19.7203 617.376L19.5752 617.861L19.5489 617.921L19.5199 617.977L19.4883 618.027L19.454 618.077L19.4172 618.119L19.3802 618.159L19.3433 618.196L19.3012 618.229L19.2616 618.256L19.2195 618.284L19.1774 618.308L19.1325 618.325L19.0877 618.342L19.0454 618.359H19.0006H18.9585H18.9137H18.8741H18.832H18.7952H18.7582H18.7213H18.6897H18.637L18.5658 618.316L18.4946 618.232L18.426 618.106L18.3601 617.945L18.2968 617.751L18.2388 617.534L18.1834 617.293L18.1333 617.036L18.0885 616.765L18.0489 616.488L18.0173 616.207L18.2758 613.089L18.8823 606.558L19.4888 600.031L20.0953 593.5L20.7018 586.972L21.3057 580.442L21.9122 573.914L22.5187 567.384L23.1252 560.856L23.7291 554.326L24.3356 547.798L24.9421 541.267L25.3377 536.846L25.3431 536.418L25.3458 535.987L25.3485 535.559L25.3512 535.131L25.3538 534.7L25.3566 534.272L25.3593 533.841L25.362 533.413L25.3647 532.985L25.3674 532.554L25.3701 532.126L25.3836 531.588L25.4311 530.753L25.4812 529.997L25.5313 529.312L25.5814 528.697L25.6367 528.143L25.6896 527.648L25.7449 527.2L25.8002 526.802L25.8583 526.445L25.9164 526.124L25.977 525.83L26.0376 525.562L26.0982 525.315L26.1615 525.088L26.2222 524.88L26.2881 524.69L26.3514 524.516L26.4173 524.359L26.4859 524.215L26.5517 524.088L26.6229 523.975L26.6915 523.874L26.7627 523.784L26.8338 523.707L26.9076 523.641L26.9815 523.587L27.0554 523.54L27.1318 523.507L27.2082 523.484L27.2846 523.47L27.3643 523.469Z" stroke="black" stroke-width="0.4"/>
<path d="M0.704267 103.985C0.616642 102.28 0.586271 87.1355 0.636632 70.3314C0.736408 37.1267 0.720882 37.546 2.15477 29.0539C3.79107 19.3627 6.91371 11.7466 12.1937 4.56886C14.2829 1.7288 15.9556 0.31155 17.2267 0.304568L17.7637 0.301147V53.6932V107.085H9.31364H0.863601L0.704226 103.984L0.704267 103.985Z" fill="url(#paint8_linear)"/>
<path d="M5.41603 118.198C5.2883 117.99 4.40109 115.983 3.44436 113.736C2.48762 111.49 1.49613 109.21 1.24103 108.67L0.777222 107.686H9.26973H17.7623V113.131V118.577H11.7052C7.14248 118.577 5.5909 118.483 5.41603 118.198V118.198Z" fill="url(#paint9_linear)"/>
<path d="M35.263 103.981C35.3506 102.276 35.381 87.1315 35.3307 70.3274C35.2309 37.1228 35.2464 37.5421 33.8125 29.05C32.1762 19.3588 29.0536 11.7427 23.7735 4.56496C21.6843 1.72489 20.0116 0.307644 18.7406 0.300662L18.2036 0.297241V53.6892V107.081H26.6536H35.1037L35.2631 103.981L35.263 103.981Z" fill="url(#paint10_linear)"/>
<path d="M30.5497 118.199C30.6774 117.991 31.5646 115.983 32.5213 113.737C33.4781 111.491 34.4696 109.21 34.7247 108.67L35.1885 107.687H26.696H18.2035V113.132V118.577H24.2605C28.8232 118.577 30.3748 118.483 30.5497 118.199V118.199Z" fill="url(#paint11_linear)"/>
<path d="M5.36182 118.775H30.5373" stroke="black" stroke-width="0.4"/>
<path d="M0.447632 107.352H35.4512" stroke="black" stroke-width="0.4"/>
<path d="M5.36417 118.775L4.8387 117.554L4.31323 116.332L3.78775 115.111L3.26228 113.889L2.73681 112.668L2.21137 111.446L1.6859 110.225L1.16043 109.003L0.634954 107.782L0.450195 102.88V95.9829V89.086V82.189V75.292V68.3951V61.4981V54.6012V47.7042L0.470056 42.5857L0.537177 41.6792L0.605328 40.7727L0.675292 39.8662L0.747935 38.9595L0.823956 38.0529L0.904139 37.146L0.989348 36.239L1.08033 35.3318L1.17794 34.4243L1.28284 33.5167L1.39562 32.6092L1.51631 31.7025L1.64552 30.797L1.78335 29.8932L1.9302 28.9919L2.08632 28.0933L2.25204 27.1981L2.42765 26.3068L2.61348 25.42L2.80982 24.5382L3.01691 23.6619L3.23513 22.7917L3.46476 21.9281L3.70609 21.0716L3.95941 20.2228L4.22505 19.3821L4.5033 18.5503L4.79436 17.7276L5.09832 16.914L5.41506 16.1091L5.74436 15.3125L6.08619 14.5241L6.44042 13.7431L6.80689 12.9696L7.18555 12.2031L7.57629 11.4432L7.97893 10.6896L8.3934 9.94188L8.81957 9.1998L9.25732 8.46284L9.70657 7.73089L10.1672 7.00354L10.639 6.28026L11.122 5.56095L11.616 4.84509L12.121 4.13288L12.6387 3.43258L13.172 2.75891L13.724 2.12691L14.2978 1.55153L14.8963 1.04768L15.5226 0.630324L16.1797 0.314379L16.8708 0.112905L17.6006 0.000835558L18.3636 0L19.0938 0.111547L19.7852 0.311872L20.4427 0.626773L21.0694 1.04319L21.6682 1.5463L22.2422 2.12106L22.7945 2.75254L23.3279 3.42589L23.8456 4.12598L24.3506 4.83819L24.8444 5.55406L25.3272 6.27337L25.7988 6.99665L26.2592 7.724L26.7081 8.45605L27.1456 9.19291L27.5716 9.93499L27.9858 10.6827L28.3883 11.4363L28.779 12.1961L29.1577 12.9626L29.5243 13.736L29.8788 14.5169L30.2211 15.3052L30.551 16.1016L30.8684 16.9064L31.1734 17.7198L31.4656 18.5423L31.7453 19.3739L32.0125 20.2142L32.2674 21.0627L32.5105 21.9189L32.7418 22.7822L32.9616 23.6522L33.1701 24.5283L33.3677 25.4099L33.5546 26.2966L33.7308 27.1877L33.8968 28.0828L34.0528 28.9814L34.199 29.8829L34.3357 30.7867L34.463 31.6925L34.5813 32.5996L34.6908 33.5075L34.7916 34.4157L34.8844 35.3237L34.9697 36.2317L35.0487 37.1396L35.1221 38.0473L35.1909 38.9551L35.2558 39.8627L35.3178 40.7703L35.3778 41.6778L35.4366 42.5853L35.454 47.7042V54.6012V61.4982V68.3951V75.2921V82.1891V89.086V95.983V102.88L35.2693 107.782L34.7438 109.003L34.2184 110.225L33.6928 111.446L33.1674 112.668L32.6419 113.889L32.1165 115.111L31.5909 116.332L31.0655 117.554L30.54 118.775" stroke="black" stroke-width="0.4"/>
<path d="M17.9493 118.775V0.000366211" stroke="black" stroke-width="0.4"/>
<path fill-rule="evenodd" clip-rule="evenodd" d="M27.8813 250.151L28.9858 250.806L29.2865 252.339L28.5075 253.607L27.0589 253.702L26.2358 252.544L26.443 251.111L27.031 250.245L27.8813 250.151Z" fill="#1A1A1A"/>
<path fill-rule="evenodd" clip-rule="evenodd" d="M25.5026 253.854L24.792 253.74L23.0428 256.466L23.0155 258.056L22.7969 259.381L23.0702 260.82L22.8242 262.41L22.9882 263.735L22.7969 264.909L23.0702 266.082L22.8242 267.483L22.9336 268.43L22.8516 269.83L23.7262 270.171L23.6987 256.617L25.5026 253.854Z" fill="#474747"/>
<path fill-rule="evenodd" clip-rule="evenodd" d="M23.6992 270.256L31.6228 270.202V256.602L29.3037 252.158L28.3706 253.817L27.147 253.917L26.6477 253.312L25.9024 252.855L25.5159 253.979L23.6992 256.602V270.256Z" fill="#999999"/>
<path d="M23.7529 256.636V270.095H31.5694L23.7545 256.635L25.5122 253.852L26.0281 252.145" stroke="black" stroke-width="0.383082" stroke-linecap="round" stroke-linejoin="round"/>
<path d="M23.7595 259.75L29.8747 270.057" stroke="black" stroke-width="0.383082" stroke-linecap="round" stroke-linejoin="round"/>
<path d="M28.2625 270.057L23.7529 262.523" stroke="black" stroke-width="0.383082" stroke-linecap="round" stroke-linejoin="round"/>
<path d="M26.7866 270.02L23.7529 265.325" stroke="black" stroke-width="0.383082" stroke-linecap="round" stroke-linejoin="round"/>
<path d="M25.1742 270.095L23.7529 267.824" stroke="black" stroke-width="0.383082" stroke-linecap="round" stroke-linejoin="round"/>
<path d="M31.5695 270.067V256.551L30.0284 253.597" stroke="black" stroke-width="0.383082" stroke-linecap="round" stroke-linejoin="round"/>
<path d="M23.7766 270.095L31.5455 256.602" stroke="black" stroke-width="0.383082" stroke-linecap="round" stroke-linejoin="round"/>
<path d="M31.5754 259.75L25.46 270.057" stroke="black" stroke-width="0.383082" stroke-linecap="round" stroke-linejoin="round"/>
<path d="M27.019 270.057L31.5287 262.523" stroke="black" stroke-width="0.383082" stroke-linecap="round" stroke-linejoin="round"/>
<path d="M28.5458 270.02L31.56 265.352" stroke="black" stroke-width="0.383082" stroke-linecap="round" stroke-linejoin="round"/>
<path d="M26.7866 270.02L23.7529 265.325" stroke="black" stroke-width="0.383082" stroke-linecap="round" stroke-linejoin="round"/>
<path d="M30.1301 270.095L31.5513 267.824" stroke="black" stroke-width="0.383082" stroke-linecap="round" stroke-linejoin="round"/>
<path d="M23.7766 267.525L30.8112 255.103" stroke="black" stroke-width="0.383082" stroke-linecap="round" stroke-linejoin="round"/>
<path d="M23.738 264.955L29.2946 254.918" stroke="black" stroke-width="0.383082" stroke-linecap="round" stroke-linejoin="round"/>
<path d="M31.5648 267.458L24.6366 255.25" stroke="black" stroke-width="0.383082" stroke-linecap="round" stroke-linejoin="round"/>
<path d="M31.5649 264.794L26.1884 255.083" stroke="black" stroke-width="0.383082" stroke-linecap="round" stroke-linejoin="round"/>
<path d="M23.7256 262.107L27.6915 254.938L29.3714 252.346" stroke="black" stroke-width="0.383082" stroke-linecap="round" stroke-linejoin="round"/>
<path d="M31.5972 262.107L27.6989 254.885L26.0087 252.118" stroke="black" stroke-width="0.383082" stroke-linecap="round" stroke-linejoin="round"/>
<path d="M23.7529 259.381L26.1854 255.103" stroke="black" stroke-width="0.383082" stroke-linecap="round" stroke-linejoin="round"/>
<path d="M31.5422 259.343L29.3009 254.923" stroke="black" stroke-width="0.383082" stroke-linecap="round" stroke-linejoin="round"/>
<path fill-rule="evenodd" clip-rule="evenodd" d="M30.0729 253.693L29.7518 253.664L29.3076 254.923L29.4269 253.594L29.3931 252.318L30.0729 253.693Z" fill="#474747" stroke="black" stroke-width="0.383082" stroke-linecap="round" stroke-linejoin="round"/>
<path fill-rule="evenodd" clip-rule="evenodd" d="M25.5055 253.844L25.7652 253.882L26.1888 255.103L26.0453 253.598L26.0316 252.159L25.5055 253.844Z" fill="#474747" stroke="black" stroke-width="0.383082" stroke-linecap="round" stroke-linejoin="round"/>
<path fill-rule="evenodd" clip-rule="evenodd" d="M27.6466 252.272V253.49L27.4775 253.51L27.1489 253.912L27.719 254.876L28.4244 254.006L28.12 253.544L27.9509 253.51L27.9455 252.266L27.6466 252.272Z" fill="#474747" stroke="black" stroke-width="0.383082" stroke-linecap="round" stroke-linejoin="round"/>
<path d="M27.1199 253.979L26.115 254.113" stroke="black" stroke-width="0.383082" stroke-linecap="round" stroke-linejoin="round"/>
<path d="M28.4436 253.979L29.3907 254.099" stroke="black" stroke-width="0.383082" stroke-linecap="round" stroke-linejoin="round"/>
<path d="M25.5566 253.797L24.7914 253.721C24.7914 253.721 24.6483 254.256 24.4771 254.478C24.3059 254.7 23.7802 254.951 23.7802 254.951C23.7802 254.951 23.7883 255.417 23.6572 255.69C23.5257 255.962 22.9466 256.39 22.9466 256.39C22.9466 256.39 23.1279 257.31 23.0969 257.791C23.0659 258.271 22.7554 259.192 22.7554 259.192C22.7554 259.192 23.0846 260.156 23.0833 260.649C23.0821 261.142 22.769 262.012 22.769 262.012C22.769 262.012 23.0275 263.069 23.0286 263.564C23.0297 264.06 22.81 264.908 22.81 264.908C22.81 264.908 23.0976 265.833 23.0833 266.29C23.0692 266.747 22.7554 267.521 22.7554 267.521C22.7554 267.521 23.0212 268.338 23.0149 268.732C23.0082 269.126 22.7554 269.773 22.7554 269.773L23.7255 270.133" stroke="black" stroke-width="0.383082" stroke-linecap="round" stroke-linejoin="round"/>
<path d="M22.9604 256.39L23.6847 256.598" stroke="black" stroke-width="0.383082" stroke-linecap="round" stroke-linejoin="round"/>
<path d="M24.627 255.317L24.5303 257.968" stroke="black" stroke-width="0.383082" stroke-linecap="round" stroke-linejoin="round"/>
<path d="M26.1729 255.21L26.0762 257.7" stroke="black" stroke-width="0.383082" stroke-linecap="round" stroke-linejoin="round"/>
<path d="M29.2849 255.05L29.2651 257.7" stroke="black" stroke-width="0.383082" stroke-linecap="round" stroke-linejoin="round"/>
<path d="M30.8113 255.184V257.861" stroke="black" stroke-width="0.383082" stroke-linecap="round" stroke-linejoin="round"/>
<path fill-rule="evenodd" clip-rule="evenodd" d="M25.6499 252.248L26.3039 252.221L26.4094 251.259L26.8524 250.457L27.654 250.163L28.2236 250.056L27.5697 249.441H26.5781L25.9031 250.136L25.6499 251.286V252.248Z" fill="#4D4D4D"/>
<path d="M28.511 250.256C28.511 250.256 27.8486 249.617 27.6338 249.537C27.37 249.44 27.0863 249.378 26.8138 249.424C26.5712 249.465 26.3171 249.564 26.1306 249.765C25.954 249.955 25.8558 250.246 25.7752 250.522C25.6838 250.834 25.6663 251.175 25.6386 251.506C25.6124 251.82 25.6113 252.453 25.6113 252.453L26.2399 253.172" stroke="black" stroke-width="0.383082" stroke-linecap="round" stroke-linejoin="round"/>
<path d="M26.2946 252.112C26.2946 252.112 26.3101 251.51 26.4039 251.241C26.5277 250.886 26.7134 250.528 26.9778 250.332C27.193 250.173 27.4668 250.194 27.7158 250.181C27.9623 250.169 28.2223 250.148 28.4536 250.257C28.6756 250.361 28.8871 250.545 29.0276 250.787C29.1277 250.959 29.1518 251.185 29.1916 251.393C29.2509 251.703 29.301 252.339 29.301 252.339" stroke="black" stroke-width="0.383082" stroke-linecap="round" stroke-linejoin="round"/>
<path fill-rule="evenodd" clip-rule="evenodd" d="M7.99033 250.151L6.88586 250.806L6.58514 252.339L7.36409 253.607L8.81271 253.702L9.63574 252.544L9.42856 251.111L8.84056 250.245L7.99033 250.151Z" fill="#1A1A1A"/>
<path fill-rule="evenodd" clip-rule="evenodd" d="M10.3687 253.854L11.0794 253.74L12.8287 256.466L12.8559 258.056L13.0746 259.381L12.8012 260.82L13.0472 262.41L12.8832 263.735L13.0746 264.909L12.8012 266.082L13.0472 267.483L12.9379 268.43L13.0199 269.83L12.1452 270.171L12.1727 256.617L10.3687 253.854Z" fill="#474747"/>
<path fill-rule="evenodd" clip-rule="evenodd" d="M12.1721 270.256L4.24866 270.202V256.602L6.56774 252.158L7.50083 253.817L8.7244 253.917L9.2237 253.312L9.96898 252.855L10.3555 253.979L12.1721 256.602V270.256Z" fill="#999999"/>
<path d="M12.1187 256.636V270.095H4.30212L12.1171 256.635L10.3593 253.852L9.84346 252.145" stroke="black" stroke-width="0.383082" stroke-linecap="round" stroke-linejoin="round"/>
<path d="M12.1119 259.75L5.99677 270.057" stroke="black" stroke-width="0.383082" stroke-linecap="round" stroke-linejoin="round"/>
<path d="M7.60907 270.057L12.1187 262.523" stroke="black" stroke-width="0.383082" stroke-linecap="round" stroke-linejoin="round"/>
<path d="M9.0849 270.02L12.1187 265.325" stroke="black" stroke-width="0.383082" stroke-linecap="round" stroke-linejoin="round"/>
<path d="M10.6973 270.095L12.1187 267.824" stroke="black" stroke-width="0.383082" stroke-linecap="round" stroke-linejoin="round"/>
<path d="M4.30206 270.067V256.551L5.84326 253.597" stroke="black" stroke-width="0.383082" stroke-linecap="round" stroke-linejoin="round"/>
<path d="M12.0947 270.095L4.32581 256.602" stroke="black" stroke-width="0.383082" stroke-linecap="round" stroke-linejoin="round"/>
<path d="M4.29608 259.75L10.4114 270.057" stroke="black" stroke-width="0.383082" stroke-linecap="round" stroke-linejoin="round"/>
<path d="M8.85254 270.057L4.34296 262.523" stroke="black" stroke-width="0.383082" stroke-linecap="round" stroke-linejoin="round"/>
<path d="M7.32593 270.02L4.31171 265.352" stroke="black" stroke-width="0.383082" stroke-linecap="round" stroke-linejoin="round"/>
<path d="M9.0849 270.02L12.1187 265.325" stroke="black" stroke-width="0.383082" stroke-linecap="round" stroke-linejoin="round"/>
<path d="M5.74121 270.095L4.32007 267.824" stroke="black" stroke-width="0.383082" stroke-linecap="round" stroke-linejoin="round"/>
<path d="M12.0947 267.525L5.06018 255.103" stroke="black" stroke-width="0.383082" stroke-linecap="round" stroke-linejoin="round"/>
<path d="M12.1335 264.955L6.57697 254.918" stroke="black" stroke-width="0.383082" stroke-linecap="round" stroke-linejoin="round"/>
<path d="M4.30658 267.458L11.2347 255.25" stroke="black" stroke-width="0.383082" stroke-linecap="round" stroke-linejoin="round"/>
<path d="M4.30652 264.794L9.68311 255.083" stroke="black" stroke-width="0.383082" stroke-linecap="round" stroke-linejoin="round"/>
<path d="M12.1459 262.107L8.17985 254.938L6.49994 252.346" stroke="black" stroke-width="0.383082" stroke-linecap="round" stroke-linejoin="round"/>
<path d="M4.27429 262.107L8.17277 254.885L9.86304 252.118" stroke="black" stroke-width="0.383082" stroke-linecap="round" stroke-linejoin="round"/>
<path d="M12.1187 259.381L9.68616 255.103" stroke="black" stroke-width="0.383082" stroke-linecap="round" stroke-linejoin="round"/>
<path d="M4.32935 259.343L6.57056 254.923" stroke="black" stroke-width="0.383082" stroke-linecap="round" stroke-linejoin="round"/>
<path fill-rule="evenodd" clip-rule="evenodd" d="M5.79858 253.693L6.11965 253.664L6.56384 254.923L6.4446 253.594L6.47838 252.318L5.79858 253.693Z" fill="#474747" stroke="black" stroke-width="0.383082" stroke-linecap="round" stroke-linejoin="round"/>
<path fill-rule="evenodd" clip-rule="evenodd" d="M10.366 253.844L10.1063 253.882L9.68274 255.103L9.82621 253.598L9.83997 252.159L10.366 253.844Z" fill="#474747" stroke="black" stroke-width="0.383082" stroke-linecap="round" stroke-linejoin="round"/>
<path fill-rule="evenodd" clip-rule="evenodd" d="M8.22453 252.272V253.49L8.39362 253.51L8.72217 253.912L8.1521 254.876L7.44672 254.006L7.75112 253.544L7.92021 253.51L7.92557 252.266L8.22453 252.272Z" fill="#474747" stroke="black" stroke-width="0.383082" stroke-linecap="round" stroke-linejoin="round"/>
<path d="M8.75177 253.979L9.75659 254.113" stroke="black" stroke-width="0.383082" stroke-linecap="round" stroke-linejoin="round"/>
<path d="M7.42773 253.979L6.48065 254.099" stroke="black" stroke-width="0.383082" stroke-linecap="round" stroke-linejoin="round"/>
<path d="M10.3149 253.797L11.0801 253.721C11.0801 253.721 11.2232 254.256 11.3944 254.478C11.5656 254.7 12.0913 254.951 12.0913 254.951C12.0913 254.951 12.0833 255.417 12.2144 255.69C12.3459 255.962 12.9249 256.39 12.9249 256.39C12.9249 256.39 12.7436 257.31 12.7746 257.791C12.8057 258.271 13.1162 259.192 13.1162 259.192C13.1162 259.192 12.787 260.156 12.7882 260.649C12.7895 261.142 13.1025 262.012 13.1025 262.012C13.1025 262.012 12.844 263.069 12.843 263.564C12.8419 264.06 13.0616 264.908 13.0616 264.908C13.0616 264.908 12.774 265.833 12.7882 266.29C12.8024 266.747 13.1162 267.521 13.1162 267.521C13.1162 267.521 12.8504 268.338 12.8566 268.732C12.8634 269.126 13.1162 269.773 13.1162 269.773L12.146 270.133" stroke="black" stroke-width="0.383082" stroke-linecap="round" stroke-linejoin="round"/>
<path d="M12.9111 256.39L12.1868 256.598" stroke="black" stroke-width="0.383082" stroke-linecap="round" stroke-linejoin="round"/>
<path d="M11.2448 255.317L11.3413 257.968" stroke="black" stroke-width="0.383082" stroke-linecap="round" stroke-linejoin="round"/>
<path d="M9.69836 255.21L9.79517 257.7" stroke="black" stroke-width="0.383082" stroke-linecap="round" stroke-linejoin="round"/>
<path d="M6.58673 255.05L6.60632 257.7" stroke="black" stroke-width="0.383082" stroke-linecap="round" stroke-linejoin="round"/>
<path d="M5.0603 255.184V257.861" stroke="black" stroke-width="0.383082" stroke-linecap="round" stroke-linejoin="round"/>
<path fill-rule="evenodd" clip-rule="evenodd" d="M10.2219 252.248L9.56796 252.221L9.46248 251.259L9.01947 250.457L8.21784 250.163L7.64825 250.056L8.30222 249.441H9.29372L9.96878 250.136L10.2219 251.286V252.248Z" fill="#4D4D4D"/>
<path d="M7.36023 250.256C7.36023 250.256 8.02271 249.617 8.23749 249.537C8.50135 249.44 8.78496 249.378 9.05747 249.424C9.30008 249.465 9.55426 249.564 9.74074 249.765C9.91728 249.955 10.0155 250.246 10.0961 250.522C10.1875 250.834 10.2051 251.175 10.2327 251.506C10.2589 251.82 10.26 252.453 10.26 252.453L9.63138 253.172" stroke="black" stroke-width="0.383082" stroke-linecap="round" stroke-linejoin="round"/>
<path d="M9.57727 252.112C9.57727 252.112 9.56175 251.51 9.46791 251.241C9.3441 250.886 9.15844 250.528 8.89401 250.332C8.67878 250.173 8.40502 250.194 8.15603 250.181C7.90945 250.169 7.64951 250.148 7.41814 250.257C7.19619 250.361 6.98472 250.545 6.84415 250.787C6.7441 250.959 6.71992 251.185 6.68016 251.393C6.62088 251.703 6.5708 252.339 6.5708 252.339" stroke="black" stroke-width="0.383082" stroke-linecap="round" stroke-linejoin="round"/>
<defs>
<linearGradient id="paint0_linear" x1="5.33374" y1="366.387" x2="30.5378" y2="366.387" gradientUnits="userSpaceOnUse">
<stop stop-color="#F6F6F6"/>
<stop offset="0.500126" stop-color="white"/>
<stop offset="1" stop-color="#F6F6F6"/>
</linearGradient>
<linearGradient id="paint1_linear" x1="5.33374" y1="228.628" x2="30.5372" y2="228.628" gradientUnits="userSpaceOnUse">
<stop stop-color="#101010"/>
<stop offset="0.499906" stop-color="#282828"/>
<stop offset="1" stop-color="#101010"/>
</linearGradient>
<linearGradient id="paint2_linear" x1="5.33374" y1="604.262" x2="30.5378" y2="604.262" gradientUnits="userSpaceOnUse">
<stop stop-color="#101010"/>
<stop offset="0.499906" stop-color="#282828"/>
<stop offset="1" stop-color="#101010"/>
</linearGradient>
<linearGradient id="paint3_linear" x1="5.37755" y1="620.496" x2="30.4596" y2="620.496" gradientUnits="userSpaceOnUse">
<stop stop-color="#101010"/>
<stop offset="0.499906" stop-color="#282828"/>
<stop offset="1" stop-color="#101010"/>
</linearGradient>
<linearGradient id="paint4_linear" x1="1.90121" y1="570.914" x2="18.154" y2="570.914" gradientUnits="userSpaceOnUse">
<stop stop-color="#181818"/>
<stop offset="1" stop-color="#3C3C3C"/>
</linearGradient>
<linearGradient id="paint5_linear" x1="5.10181" y1="582.407" x2="12.8058" y2="614.895" gradientUnits="userSpaceOnUse">
<stop stop-color="#080808"/>
<stop offset="1" stop-color="#141414"/>
</linearGradient>
<linearGradient id="paint6_linear" x1="33.9981" y1="570.914" x2="17.7453" y2="570.914" gradientUnits="userSpaceOnUse">
<stop stop-color="#181818"/>
<stop offset="1" stop-color="#3C3C3C"/>
</linearGradient>
<linearGradient id="paint7_linear" x1="30.7978" y1="582.407" x2="23.0939" y2="614.895" gradientUnits="userSpaceOnUse">
<stop stop-color="#080808"/>
<stop offset="1" stop-color="#141414"/>
</linearGradient>
<linearGradient id="paint8_linear" x1="-4.06965" y1="1185.46" x2="14.9882" y2="1185.46" gradientUnits="userSpaceOnUse">
<stop stop-color="#E6E6E6"/>
<stop offset="1" stop-color="#F9F9F9"/>
</linearGradient>
<linearGradient id="paint9_linear" x1="-4.07123" y1="1185.46" x2="14.9867" y2="1185.46" gradientUnits="userSpaceOnUse">
<stop stop-color="#E6E6E6"/>
<stop offset="1" stop-color="#F9F9F9"/>
</linearGradient>
<linearGradient id="paint10_linear" x1="41.2045" y1="1186.1" x2="17.6036" y2="1186.1" gradientUnits="userSpaceOnUse">
<stop stop-color="#E6E6E6"/>
<stop offset="1" stop-color="#F9F9F9"/>
</linearGradient>
<linearGradient id="paint11_linear" x1="41.2045" y1="1186.1" x2="17.6036" y2="1186.1" gradientUnits="userSpaceOnUse">
<stop stop-color="#E6E6E6"/>
<stop offset="1" stop-color="#F9F9F9"/>
</linearGradient>
</defs>
</svg>
